<svg id="图层_1" data-name="图层 1" xmlns="http://www.w3.org/2000/svg" viewBox="0 0 128.66 17.13"><defs><style>.cls-1{fill:#231815;stroke:#231815;stroke-miterlimit:10;stroke-width:0.5px;}</style></defs><title>未标题-1</title><path class="cls-1" d="M80.59,81l2.07-11.79h.8L81.39,81Zm1.32-5.5.17-.74h6.49l-.16.74ZM87,81l2.08-11.79h.79L87.83,81Z" transform="translate(-80.29 -68.12)"/><path class="cls-1" d="M93.32,72.19c-.55,1.47-1,2.7-1.26,3.7a9.47,9.47,0,0,0-.44,2.6,2,2,0,0,0,.47,1.43,1.83,1.83,0,0,0,1.38.49A3.11,3.11,0,0,0,96,79.08a10,10,0,0,0,1.55-4.2l-.26,3.62h-.55l.39-.81a12.3,12.3,0,0,1-.78,1.72,3.77,3.77,0,0,1-1.16,1.28,3.25,3.25,0,0,1-1.84.48,2.56,2.56,0,0,1-1.91-.66,2.72,2.72,0,0,1-.66-2,9.85,9.85,0,0,1,.48-2.93c.31-1,.74-2.21,1.27-3.56Zm3.35,8.89.45-3.2.09-.87.86-4.81h.79l-1.52,8.62-.41-.51h2l-.12.68Z" transform="translate(-80.29 -68.12)"/><path class="cls-1" d="M106.56,81.17c-1.69,0-2.54-.8-2.54-2.39a8.49,8.49,0,0,1,.09-1q.09-.66.3-1.83l.58-3.23.16.28h-3.38l.13-.75h4l-.66,3.7c-.14.8-.24,1.41-.3,1.84a7.42,7.42,0,0,0-.09.91c0,1.17.59,1.75,1.82,1.75a2.65,2.65,0,0,0,.88-.16,4.34,4.34,0,0,0,.94-.47l.3.7a4.77,4.77,0,0,1-1.1.52A3.57,3.57,0,0,1,106.56,81.17ZM105.84,70a.82.82,0,0,1-.59-.24.83.83,0,0,1,0-1.17.85.85,0,0,1,1.18,0,.83.83,0,0,1,0,1.17A.82.82,0,0,1,105.84,70Z" transform="translate(-80.29 -68.12)"/><path class="cls-1" d="M112.45,72.2l-.26,2.27L111,81h-.8l1.55-8.8Zm1.24,8.8,1.17-6.62c.2-1.06,0-1.58-.74-1.58-.52,0-1,.34-1.37,1a10.2,10.2,0,0,0-1,3l.34-2.92h.25a3.37,3.37,0,0,1,.74-1.43,1.6,1.6,0,0,1,1.21-.48,1.3,1.3,0,0,1,1.22.58,2.65,2.65,0,0,1,.13,1.74L114.49,81Zm5.42-6.64L117.94,81h-.79l1.17-6.62a2,2,0,0,0-.06-1.18.69.69,0,0,0-.68-.4,1.61,1.61,0,0,0-1.36,1,8.55,8.55,0,0,0-1,2.79l.41-2.84h.16a3.08,3.08,0,0,1,.75-1.24,1.69,1.69,0,0,1,1.2-.42C118.94,72,119.38,72.81,119.11,74.36Z" transform="translate(-80.29 -68.12)"/><path class="cls-1" d="M126.48,81.17c-1.69,0-2.54-.8-2.54-2.39a7.16,7.16,0,0,1,.1-1c.06-.44.16-1,.29-1.83l.58-3.23.16.28h-3.38l.13-.75h4l-.66,3.7c-.14.8-.24,1.41-.3,1.84a7.42,7.42,0,0,0-.09.91c0,1.17.59,1.75,1.82,1.75a2.61,2.61,0,0,0,.88-.16,4.64,4.64,0,0,0,.95-.47l.29.7a4.77,4.77,0,0,1-1.1.52A3.57,3.57,0,0,1,126.48,81.17ZM125.76,70a.8.8,0,0,1-.58-.24.81.81,0,0,1,0-1.17.8.8,0,0,1,.58-.24.82.82,0,0,1,.59.24.83.83,0,0,1,0,1.17A.82.82,0,0,1,125.76,70Z" transform="translate(-80.29 -68.12)"/><path class="cls-1" d="M130.63,81l1.55-8.8h.65l-.33,2.68L131.42,81Zm6,0,1-5.85a2.26,2.26,0,0,0-.22-1.76,1.8,1.8,0,0,0-1.56-.59,2.88,2.88,0,0,0-1.66.52,4.25,4.25,0,0,0-1.36,1.74,12,12,0,0,0-.93,3.28l.42-3.56h.33a3.93,3.93,0,0,1,1.21-2A3.23,3.23,0,0,1,136,72a2.41,2.41,0,0,1,2.07.8,3,3,0,0,1,.33,2.37l-1,5.79Z" transform="translate(-80.29 -68.12)"/><path class="cls-1" d="M144.41,75.11l-.47-.56.69-.65a7,7,0,0,0,1.17-1.38,3,3,0,0,0,.49-1.29c.11-1-.4-1.42-1.54-1.42h-.18l.13-.76H145a2.16,2.16,0,0,1,1.71.59,2,2,0,0,1,.37,1.72,4,4,0,0,1-.62,1.59,7.68,7.68,0,0,1-1.39,1.6Z" transform="translate(-80.29 -68.12)"/><path class="cls-1" d="M155.84,72.2h.49v.68a7.06,7.06,0,0,1-.8.7c-.34.26-.71.55-1.12.84s-.82.59-1.23.87L152,76c-.35.22-.62.38-.82.49l-.4-.67,1.11-.7c.45-.3.91-.62,1.4-1s1-.69,1.41-1A11.64,11.64,0,0,0,155.84,72.2Zm.08.33-.08-.33h.73c.24.72.46,1.32.67,1.82s.4.93.57,1.31a8,8,0,0,1,.38,1,3.62,3.62,0,0,1,.14,1.06,3.48,3.48,0,0,1-1.07,2.75,4.48,4.48,0,0,1-3.08,1,6.74,6.74,0,0,1-1.59-.17,8.12,8.12,0,0,1-1.34-.45l.29-.78a8.36,8.36,0,0,0,1.31.47,5.1,5.1,0,0,0,1.33.16,3.69,3.69,0,0,0,2.48-.75,2.63,2.63,0,0,0,.88-2.13,3.9,3.9,0,0,0-.2-1.18c-.13-.41-.3-.82-.48-1.24s-.37-.85-.55-1.28A7.63,7.63,0,0,1,155.92,72.53Z" transform="translate(-80.29 -68.12)"/><path class="cls-1" d="M173.47,68.43,171.24,81h-.79l2.13-12.08.59.32h-2.43l.12-.68Zm-1.23,12.74c-.3,0-.6,0-.9,0a8.67,8.67,0,0,1-.89-.13l.65-.8a3,3,0,0,0,1.32.21,5.67,5.67,0,0,0,2.2-.41,5.27,5.27,0,0,0,1.76-1.15,5.13,5.13,0,0,0,1.17-1.74,5.47,5.47,0,0,0,.42-2.16,2.18,2.18,0,0,0-.54-1.58,2,2,0,0,0-1.51-.56,3,3,0,0,0-1.69.58,5.06,5.06,0,0,0-1.52,1.8,9.93,9.93,0,0,0-1,3.18l.32-3.58h.68l-.43.63a4.58,4.58,0,0,1,1.42-2.49,3.66,3.66,0,0,1,2.46-.88,2.51,2.51,0,0,1,1.93.73,3,3,0,0,1,.68,2.09,6.22,6.22,0,0,1-.49,2.49,6,6,0,0,1-1.38,2,6.34,6.34,0,0,1-2.08,1.33A6.81,6.81,0,0,1,172.24,81.17Z" transform="translate(-80.29 -68.12)"/><path class="cls-1" d="M188.21,80.09l.16.73a7.94,7.94,0,0,1-1.08.26,5.17,5.17,0,0,1-.95.09,3.8,3.8,0,0,1-3.24-1.46,7,7,0,0,1-1.11-4.3,11.76,11.76,0,0,1,.52-3.7A5.7,5.7,0,0,1,184,69.26a3.11,3.11,0,0,1,2.21-.88,2,2,0,0,1,1.63.71,3.37,3.37,0,0,1,.55,2.08,6.75,6.75,0,0,1-1,3.56,8.55,8.55,0,0,1-2.8,2.78,14.09,14.09,0,0,1-4.38,1.78l-.17-.75A13.08,13.08,0,0,0,184.09,77a7.81,7.81,0,0,0,2.58-2.53,6.18,6.18,0,0,0,.89-3.25,2.69,2.69,0,0,0-.41-1.51,1.25,1.25,0,0,0-1.07-.51,2.31,2.31,0,0,0-1.73.78,5.29,5.29,0,0,0-1.15,2.18,12,12,0,0,0-.41,3.3,6.2,6.2,0,0,0,.94,3.73,3.24,3.24,0,0,0,2.77,1.26,4.12,4.12,0,0,0,.88-.08A6.15,6.15,0,0,0,188.21,80.09Z" transform="translate(-80.29 -68.12)"/><path class="cls-1" d="M193.74,81.17a2.77,2.77,0,0,1-2.19-.89,3.58,3.58,0,0,1-.79-2.47A6.67,6.67,0,0,1,192,73.56,4.07,4.07,0,0,1,195.35,72a2.78,2.78,0,0,1,2.2.9,3.76,3.76,0,0,1,.79,2.53,6.49,6.49,0,0,1-1.22,4.19A4.12,4.12,0,0,1,193.74,81.17Zm.16-.77a3.17,3.17,0,0,0,2.68-1.29,6,6,0,0,0,1-3.61,3,3,0,0,0-.6-2,2.11,2.11,0,0,0-1.69-.71,3.21,3.21,0,0,0-2.72,1.3,5.88,5.88,0,0,0-1,3.6,2.91,2.91,0,0,0,.63,2A2.17,2.17,0,0,0,193.9,80.4Z" transform="translate(-80.29 -68.12)"/><path class="cls-1" d="M199.87,85l0-.76,1.69-.07a5.94,5.94,0,0,0,2.14-.46,4.27,4.27,0,0,0,1.45-1,5,5,0,0,0,.89-1.43,7.82,7.82,0,0,0,.48-1.61l1.24-7.08.81-.4h.06l-1.27,7.21a11.36,11.36,0,0,1-.6,2.16,5.52,5.52,0,0,1-1.06,1.73,4.72,4.72,0,0,1-1.73,1.19,7.51,7.51,0,0,1-2.57.51Zm8.47-12.1a10,10,0,0,0-2.85.51,7.93,7.93,0,0,0-2.31,1.22,5.89,5.89,0,0,0-1.54,1.78,4.46,4.46,0,0,0-.56,2.19,1.94,1.94,0,0,0,.44,1.37,1.68,1.68,0,0,0,1.29.46,3.22,3.22,0,0,0,2-.71,5.87,5.87,0,0,0,1.52-2,11,11,0,0,0,.95-2.85l.07-.33.09.7L207,78.5h-.71l.4-.4a4.55,4.55,0,0,1-1.47,2.27,3.92,3.92,0,0,1-2.52.8,2.36,2.36,0,0,1-1.79-.62,2.55,2.55,0,0,1-.61-1.85A5.9,5.9,0,0,1,200.9,76a6.13,6.13,0,0,1,1.72-2.08,8.29,8.29,0,0,1,2.6-1.33,10.73,10.73,0,0,1,3.23-.46h.15Z" transform="translate(-80.29 -68.12)"/></svg>