<svg id="图层_1" data-name="图层 1" xmlns="http://www.w3.org/2000/svg" viewBox="0 0 414.82 54.28"><defs><style>.cls-1{fill:#231815;stroke:#231815;stroke-miterlimit:10;stroke-width:0.5px;}</style></defs><title>logo</title><path class="cls-1" d="M7.57,90l6.72-38.13h2.58L10.15,90Zm4.27-17.78.54-2.42h21l-.54,2.42ZM28.41,90l6.72-38.13h2.58L31,90Z" transform="translate(-7.28 -48.88)"/><path class="cls-1" d="M48.77,61.51q-2.69,7.11-4.1,11.95a30.68,30.68,0,0,0-1.41,8.43,6.34,6.34,0,0,0,1.54,4.63,5.92,5.92,0,0,0,4.45,1.57,10,10,0,0,0,8.3-4.31q3.3-4.31,5-13.57l-.83,11.71H60l1.26-2.64a37.29,37.29,0,0,1-2.55,5.56A12.13,12.13,0,0,1,54.93,89a10.3,10.3,0,0,1-6,1.57q-4.08,0-6.19-2.16T40.69,82a32.35,32.35,0,0,1,1.53-9.49q1.53-5,4.11-11.53ZM59.59,90.27,61.07,79.9l.27-2.82,2.79-15.55,2.55,0L61.77,89.44,60.42,87.8H66.9L66.52,90Z" transform="translate(-7.28 -48.88)"/><path class="cls-1" d="M91.6,90.54q-8.2,0-8.21-7.74a25.88,25.88,0,0,1,.29-3.37q.3-2.16,1-6L86.5,63.06,87,64H76.11l.4-2.42H89.35l-2.12,12q-.67,3.9-1,6a23.45,23.45,0,0,0-.3,3q-.08,5.67,5.89,5.67a8.63,8.63,0,0,0,2.84-.53A14.69,14.69,0,0,0,97.75,86l1,2.25A16,16,0,0,1,95.15,90,11.72,11.72,0,0,1,91.6,90.54ZM89.27,54.47a2.61,2.61,0,0,1-1.9-.78,2.56,2.56,0,0,1-.79-1.88,2.62,2.62,0,0,1,.79-1.89A2.69,2.69,0,0,1,92,51.81a2.52,2.52,0,0,1-.79,1.88A2.61,2.61,0,0,1,89.27,54.47Z" transform="translate(-7.28 -48.88)"/><path class="cls-1" d="M110.64,61.53l-.83,7.33L106.08,90H103.5l5-28.47Zm4,28.47,3.79-21.43q.95-5.1-2.39-5.1c-1.68,0-3.17,1.11-4.45,3.34a33.08,33.08,0,0,0-3.18,9.84l1.1-9.45h.81a11,11,0,0,1,2.39-4.63A5.17,5.17,0,0,1,116.66,61a4.17,4.17,0,0,1,4,1.9c.73,1.27.88,3.14.43,5.62L117.25,90Zm17.54-21.48L128.42,90h-2.55l3.76-21.43a6.23,6.23,0,0,0-.19-3.81,2.26,2.26,0,0,0-2.2-1.29q-2.52,0-4.4,3.06a27.9,27.9,0,0,0-3.06,9l1.31-9.19h.54a10,10,0,0,1,2.4-4A5.43,5.43,0,0,1,127.91,61Q133.52,61,132.21,68.52Z" transform="translate(-7.28 -48.88)"/><path class="cls-1" d="M156.06,90.54q-8.22,0-8.22-7.74a26.25,26.25,0,0,1,.3-3.37q.29-2.16,1-6L151,63.06l.54.89H140.56l.4-2.42H153.8l-2.12,12q-.68,3.9-1,6a24.94,24.94,0,0,0-.29,3q-.09,5.67,5.88,5.67a8.74,8.74,0,0,0,2.85-.53A14.94,14.94,0,0,0,162.21,86l1,2.25A16,16,0,0,1,159.6,90,11.7,11.7,0,0,1,156.06,90.54Zm-2.34-36.07a2.61,2.61,0,0,1-1.89-.78,2.52,2.52,0,0,1-.79-1.88,2.69,2.69,0,0,1,5.37,0,2.53,2.53,0,0,1-.8,1.88A2.59,2.59,0,0,1,153.72,54.47Z" transform="translate(-7.28 -48.88)"/><path class="cls-1" d="M169.46,90l5-28.47h2.09l-1,8.68L172,90Zm19.31,0,3.33-18.93c.44-2.53.21-4.42-.71-5.7s-2.61-1.9-5.07-1.9A9.4,9.4,0,0,0,181,65.16a14,14,0,0,0-4.4,5.61,39.43,39.43,0,0,0-3,10.64l1.37-11.52H176a12.79,12.79,0,0,1,3.93-6.57,10.44,10.44,0,0,1,7-2.32q4.78,0,6.73,2.61t1.06,7.67L191.35,90Z" transform="translate(-7.28 -48.88)"/><path class="cls-1" d="M214,70.93l-1.51-1.8L214.76,67a23.12,23.12,0,0,0,3.79-4.47,10,10,0,0,0,1.58-4.18q.54-4.59-5-4.59h-.6l.43-2.47h.78c2.56,0,4.42.63,5.56,1.9s1.54,3.14,1.18,5.59a13,13,0,0,1-2,5.14A24.89,24.89,0,0,1,216,69.13Z" transform="translate(-7.28 -48.88)"/><path class="cls-1" d="M251,61.53h1.58l0,2.21A28.65,28.65,0,0,1,250,66q-1.65,1.3-3.64,2.74c-1.32,1-2.65,1.89-4,2.79s-2.55,1.71-3.67,2.43-2,1.25-2.64,1.61l-1.29-2.17c.95-.58,2.14-1.34,3.58-2.29s3-2,4.54-3.11,3.1-2.25,4.54-3.37A38.66,38.66,0,0,0,251,61.53Zm.27,1.08-.24-1.08h2.36q1.13,3.47,2.16,5.88t1.83,4.23a30.18,30.18,0,0,1,1.25,3.41,12.64,12.64,0,0,1,.45,3.43q0,5.74-3.49,8.9c-2.34,2.11-5.67,3.16-10,3.16A22,22,0,0,1,240.5,90a26.63,26.63,0,0,1-4.31-1.45l.92-2.52a29.13,29.13,0,0,0,4.24,1.51,16.83,16.83,0,0,0,4.3.53q5.21,0,8-2.43a8.58,8.58,0,0,0,2.83-6.89,12.3,12.3,0,0,0-.64-3.83,40.28,40.28,0,0,0-1.56-4c-.61-1.36-1.19-2.74-1.76-4.13A23.44,23.44,0,0,1,251.29,62.61Z" transform="translate(-7.28 -48.88)"/><path class="cls-1" d="M308.06,49.34,300.86,90l-2.58,0,6.91-39.07,1.9,1h-7.84l.38-2.2Zm-4,41.2a28.31,28.31,0,0,1-2.9-.15c-1-.1-1.93-.24-2.9-.42l2.12-2.57a10,10,0,0,0,4.28.67,18.82,18.82,0,0,0,7.11-1.33,17.25,17.25,0,0,0,9.5-9.35,17.85,17.85,0,0,0,1.35-7,7.09,7.09,0,0,0-1.74-5.12A6.52,6.52,0,0,0,316,63.47a9.66,9.66,0,0,0-5.45,1.86,16.54,16.54,0,0,0-4.93,5.84,32.24,32.24,0,0,0-3.23,10.29l1-11.57h2.21l-1.4,2a14.85,14.85,0,0,1,4.6-8.07,11.85,11.85,0,0,1,8-2.86A8.08,8.08,0,0,1,323,63.37a9.55,9.55,0,0,1,2.22,6.76,20.49,20.49,0,0,1-1.58,8.07,19.6,19.6,0,0,1-4.46,6.48A20.64,20.64,0,0,1,312.45,89,22.29,22.29,0,0,1,304.08,90.54Z" transform="translate(-7.28 -48.88)"/><path class="cls-1" d="M355.75,87.05l.51,2.36a28.62,28.62,0,0,1-3.47.86,18.24,18.24,0,0,1-3.08.27q-6.93,0-10.5-4.73t-3.57-13.88a38.36,38.36,0,0,1,1.68-12A18.51,18.51,0,0,1,342,52a10.15,10.15,0,0,1,7.13-2.83,6.3,6.3,0,0,1,5.28,2.28q1.79,2.28,1.79,6.74a22,22,0,0,1-3.14,11.51,27.85,27.85,0,0,1-9,9,46.32,46.32,0,0,1-14.19,5.76l-.54-2.42a41.83,41.83,0,0,0,13.09-5.16,25,25,0,0,0,8.34-8.17,19.9,19.9,0,0,0,2.9-10.52,8.62,8.62,0,0,0-1.33-4.88,4,4,0,0,0-3.45-1.67,7.48,7.48,0,0,0-5.61,2.52,17,17,0,0,0-3.72,7.08,38.15,38.15,0,0,0-1.33,10.68q0,7.95,3,12t9,4.1a14.83,14.83,0,0,0,2.84-.26A18,18,0,0,0,355.75,87.05Z" transform="translate(-7.28 -48.88)"/><path class="cls-1" d="M373.64,90.54a9,9,0,0,1-7.09-2.88q-2.55-2.86-2.55-8,0-8.81,3.93-13.75c2.63-3.3,6.26-4.94,10.92-4.94A9,9,0,0,1,386,63.92q2.55,2.94,2.55,8.19,0,8.69-3.94,13.55T373.64,90.54Zm.54-2.47a10.15,10.15,0,0,0,8.64-4.19q3.12-4.2,3.12-11.69A9.64,9.64,0,0,0,384,65.78a6.75,6.75,0,0,0-5.46-2.31,10.38,10.38,0,0,0-8.78,4.2q-3.18,4.2-3.17,11.67a9.46,9.46,0,0,0,2,6.42A7,7,0,0,0,374.18,88.07Z" transform="translate(-7.28 -48.88)"/><path class="cls-1" d="M393.49,102.89l-.11-2.47,5.48-.24a18.78,18.78,0,0,0,6.93-1.49,13.81,13.81,0,0,0,4.68-3.39,16.16,16.16,0,0,0,2.89-4.63,25.64,25.64,0,0,0,1.53-5.21l4-22.88,2.6-1.32h.22L417.6,84.6a36.29,36.29,0,0,1-1.92,7,18,18,0,0,1-3.44,5.62,15.42,15.42,0,0,1-5.58,3.84,24.58,24.58,0,0,1-8.34,1.64Zm27.39-39.15a31.61,31.61,0,0,0-9.21,1.65,25.52,25.52,0,0,0-7.47,3.94,18.82,18.82,0,0,0-5,5.75,14.45,14.45,0,0,0-1.8,7.08,6.25,6.25,0,0,0,1.41,4.43,5.45,5.45,0,0,0,4.17,1.5,10.26,10.26,0,0,0,6.56-2.31,18.73,18.73,0,0,0,4.94-6.35,35.67,35.67,0,0,0,3.06-9.22l.21-1.08.3,2.26-1.53,10.53h-2.31l1.29-1.29A14.7,14.7,0,0,1,410.74,88a12.67,12.67,0,0,1-8.15,2.59,7.74,7.74,0,0,1-5.79-2,8.29,8.29,0,0,1-2-6,19.14,19.14,0,0,1,2-8.77,19.65,19.65,0,0,1,5.57-6.72,26.1,26.1,0,0,1,8.39-4.3,35,35,0,0,1,10.45-1.51h.51Z" transform="translate(-7.28 -48.88)"/></svg>